<svg xmlns="http://www.w3.org/2000/svg" viewBox="0 0 112 84" width="112" height="84" role="img" aria-label="Gói kẹo">
  <defs>
    <linearGradient id="bagShineH" x1="0" y1="0" x2="0" y2="1">
      <stop offset="0%" stop-color="#ffffff" stop-opacity="0.6"/>
      <stop offset="40%" stop-color="#ffffff" stop-opacity="0.05"/>
      <stop offset="100%" stop-color="#ffffff" stop-opacity="0"/>
    </linearGradient>
  </defs>
  <ellipse cx="56" cy="78" rx="48" ry="3" fill="#1c0f04" opacity="0.35"/>
  <ellipse cx="6" cy="42" rx="3.5" ry="9" fill="#a16207" stroke="#5d3a04" stroke-width="1"/>
  <path d="M12 18 Q14 12 24 12 H100 Q106 12 106 22 V62 Q106 72 100 72 H24 Q14 72 12 66 Z"
        fill="#fef3c7" fill-opacity="0.45" stroke="#92400e" stroke-width="1.5"/>
  <ellipse cx="40" cy="36" rx="6" ry="4" fill="#ec4899" stroke="#9d174d" stroke-width="0.6"/>
  <ellipse cx="56" cy="48" rx="6" ry="4" fill="#fb7185" stroke="#9d174d" stroke-width="0.6"/>
  <ellipse cx="74" cy="40" rx="5" ry="3.2" fill="#f59e0b" stroke="#92400e" stroke-width="0.6"/>
  <ellipse cx="88" cy="52" rx="5" ry="3.2" fill="#10b981" stroke="#065f46" stroke-width="0.6"/>
  <ellipse cx="30" cy="54" rx="5" ry="3.2" fill="#3b82f6" stroke="#1e3a8a" stroke-width="0.6"/>
  <ellipse cx="66" cy="60" rx="4.5" ry="3" fill="#a855f7" stroke="#581c87" stroke-width="0.6"/>
  <ellipse cx="92" cy="34" rx="4" ry="2.8" fill="#fbbf24" stroke="#92400e" stroke-width="0.6"/>
  <rect x="42" y="22" width="28" height="9" fill="#ffffff" stroke="#92400e" stroke-width="0.8" rx="1"/>
  <text x="56" y="29" text-anchor="middle" font-family="Arial,sans-serif" font-size="6" font-weight="700" fill="#92400e">CANDY</text>
  <path d="M16 22 Q56 22 100 22" stroke="url(#bagShineH)" stroke-width="3" fill="none"/>
</svg>
